<svg height="60" viewBox="0 0 152 60" width="152" xmlns="http://www.w3.org/2000/svg"><g fill="#fffffe" fill-rule="evenodd"><path d="m.26 34.185c16.477 1.645 27.883-7.06 41.932-7.06 10.281 0 16.173 4.444 24.018 5.343v.351c-9.242.127-15.016-2.39-24.113-2.41-10.995-.024-23.213 5.36-32.171 5.417-6.875.044-9.392-1.235-9.666-1.29v-.351"/><path d="m28.157 13.302c-11.488 2.667-12.638 13.377-12.307 17.706 1.228-.271 2.501-.614 3.582-.94-.026-3.904 1.34-11.103 9.637-13.133 8.669-2.121 13.609 4.668 15.069 8.311 1.303.026 2.514.152 3.745.406-.064-2.851-6.781-15.357-19.727-12.35m-25.916 11.714c.078-.536.504-1.25 1.72-1.027 1.676.307 8.471 2.011 8.258 3-.118.55-.959 1.278-8.622-.231-1.429-.282-1.409-1.381-1.356-1.742m6.81-14.778c.274-.466.993-.967 2.035-.3 1.436.917 7.037 4.857 6.305 6.015-.092.146-.868.12-7.743-3.59-1.282-.691-.783-1.81-.597-2.125m17.075-10.187c.526-.127 1.395.174 1.642 1.385.341 1.67 1.28 8.379.07 8.551-.117.017-.413-.161-.878-1.267-.474-1.132-1.273-4.285-1.934-6.627-.395-1.402.745-1.956 1.1-2.042m19.378 2.893c.563.313 1.032 1.122.234 2.178-1.027 1.36-4.556 7.053-5.567 6.367-.097-.067-.29-.553-.007-1.719.279-1.149 1.83-3.72 3.25-6.156.732-1.253 1.692-.891 2.09-.67m12.252 11.049c.36.534.39 1.525-.8 2.106-1.53.747-7.321 4.036-7.912 2.967-.056-.104-.001-.613.906-1.399.938-.814 3.242-2.437 5.611-3.967 1.219-.787 1.94-.084 2.195.293m-52.086 34.372h-2.042v3.483h2.063c1.16 0 2.58-.322 2.58-1.806 0-1.269-1.033-1.677-2.602-1.677zm-.236-5.848h-1.806v3.14h1.978c1.375 0 2.171-.581 2.171-1.656 0-1.032-.795-1.484-2.343-1.484zm.709 12.298h-6.063v-15.221h6.063c2.365 0 5.181.838 5.181 3.913 0 1.677-1.01 2.794-2.494 3.289v.043c1.742.301 3.118 1.548 3.118 3.547 0 3.311-2.902 4.429-5.805 4.429zm14.082-7.825c-.322-.087-.623-.108-.902-.108-1.892 0-2.516 1.548-2.516 2.429v5.504h-3.526v-10.706h3.397v1.547h.043c.538-1.075 1.591-1.849 2.902-1.849.28 0 .581.022.753.086l-.15 3.096m.709 7.826h3.526v-10.706h-3.526zm1.763-12.19c-1.14 0-2.021-.882-2.021-1.935 0-1.032.882-1.935 2.021-1.935 1.118 0 2.021.86 2.021 1.935 0 1.096-.903 1.935-2.021 1.935zm9.051 4.063c-1.591 0-2.515 1.225-2.515 2.709 0 1.419.924 2.73 2.515 2.73 1.613 0 2.601-1.268 2.601-2.73s-1.01-2.709-2.601-2.709zm-.344 13.287c-1.87 0-4.064-.602-5.503-1.677l1.762-2.515c1.032.902 2.344 1.355 3.547 1.355 2.065 0 3.032-1.204 3.032-2.99v-.645h-.064c-.667.861-1.828 1.42-3.247 1.42-3.247 0-5.117-2.537-5.117-5.505 0-2.966 1.87-5.61 5.096-5.61 1.332 0 2.665.537 3.418 1.676h.043v-1.376h3.332v9.697c0 4.192-2.494 6.17-6.299 6.17zm15.243-5.16v-5.804c0-1.205-.3-2.258-1.569-2.258-1.226 0-1.914 1.01-1.914 2.279v5.783h-3.526v-16.253h3.526v6.901h.043c.474-.86 1.591-1.656 3.075-1.656 2.903 0 3.913 2.236 3.913 4.386v6.622zm9.138-8.062v4.084c0 .99.323 1.506 1.333 1.506.344 0 .774-.065 1.032-.173l.043 2.58c-.473.172-1.29.324-2.042.324-2.86 0-3.806-1.527-3.806-3.806v-4.515h-1.72v-2.645h1.699v-2.816h3.461v2.816h2.515v2.645zm17.544 8.062v-6.363h-5.935v6.363h-3.676v-15.222h3.676v5.762h5.935v-5.762h3.676v15.222zm11.115-8.127c-1.656 0-2.516 1.354-2.516 2.73 0 1.377.882 2.774 2.538 2.774 1.655 0 2.536-1.398 2.536-2.773 0-1.377-.902-2.731-2.558-2.731zm0 8.471c-3.225 0-5.934-2.236-5.934-5.74 0-3.505 2.709-5.654 5.934-5.654 3.246 0 5.955 2.149 5.955 5.654s-2.709 5.74-5.955 5.74zm14.232-8.169c-.323-.087-.623-.108-.903-.108-1.891 0-2.515 1.548-2.515 2.429v5.504h-3.526v-10.706h3.397v1.547h.043c.538-1.075 1.591-1.849 2.903-1.849.278 0 .58.022.752.086l-.151 3.096m.709 7.826h3.526v-10.706h-3.526zm1.763-12.19c-1.139 0-2.02-.882-2.02-1.935 0-1.032.881-1.935 2.02-1.935 1.118 0 2.022.86 2.022 1.935 0 1.096-.904 1.935-2.022 1.935zm3.011 12.19v-2.752l5.03-5.245h-4.837v-2.71h9.137v2.645l-5.181 5.331h5.396v2.731zm16.146-8.127c-1.656 0-2.516 1.354-2.516 2.73 0 1.377.882 2.774 2.537 2.774 1.656 0 2.537-1.398 2.537-2.773 0-1.377-.903-2.731-2.558-2.731zm0 8.471c-3.225 0-5.934-2.236-5.934-5.74 0-3.505 2.709-5.654 5.934-5.654 3.246 0 5.955 2.149 5.955 5.654s-2.709 5.74-5.955 5.74zm14.318-.344v-5.847c0-1.183-.322-2.259-1.59-2.259-1.247 0-1.892 1.076-1.892 2.301v5.805h-3.548v-10.706h3.419v1.483h.042c.494-.947 1.72-1.785 3.203-1.785 2.882 0 3.913 2.236 3.913 4.386v6.622zm11.61-7.546c-.559-.538-1.376-.968-2.236-.968-.667 0-1.333.237-1.333.86 0 .602.581.774 1.957 1.075 1.633.366 3.418 1.183 3.418 3.268 0 2.709-2.386 3.656-4.58 3.656-1.741 0-3.547-.581-4.665-1.656l1.978-2.086c.624.688 1.591 1.204 2.623 1.204.581 0 1.269-.236 1.269-.924 0-.666-.666-.882-2.128-1.226-1.484-.344-3.119-1.096-3.119-3.117 0-2.558 2.409-3.59 4.451-3.59 1.591 0 3.246.516 4.3 1.504zm4.587 5.891c0-.051-.022-.089-.067-.112-.046-.025-.092-.036-.14-.036h-.226v.32h.226c.055 0 .104-.015.145-.047.042-.031.063-.073.063-.124zm.037 1.053-.297-.571h-.173v.57h-.423v-1.546h.667c.075 0 .15.009.226.025.075.015.143.042.204.08s.112.088.149.151c.037.064.057.141.057.233 0 .102-.029.191-.087.264-.058.074-.132.126-.222.158l.392.636zm.85-.744c0-.158-.03-.306-.09-.446-.058-.138-.14-.26-.243-.365s-.224-.188-.36-.247c-.137-.06-.285-.089-.443-.089-.159 0-.307.03-.446.09-.138.059-.26.141-.365.246s-.188.227-.248.365c-.059.14-.089.288-.089.446 0 .155.03.301.09.441.059.139.142.259.246.362.106.103.228.184.366.245.139.058.287.088.446.088s.306-.03.443-.088c.136-.06.256-.142.36-.245.102-.103.185-.224.244-.362.059-.14.089-.286.089-.44zm.214 0c0 .187-.036.361-.107.524s-.168.303-.288.422c-.121.119-.264.213-.429.282-.164.07-.34.104-.526.104s-.363-.034-.53-.104c-.166-.069-.31-.163-.434-.282-.123-.119-.219-.26-.29-.422-.072-.163-.108-.337-.108-.524 0-.186.036-.361.107-.526.072-.164.168-.306.291-.427.124-.122.268-.218.435-.29.166-.07.343-.106.529-.106s.362.036.526.107c.165.071.308.167.428.289.121.12.218.263.288.428.072.164.108.34.108.525z"/></g></svg>