<svg width="27" height="27" viewBox="0 0 27 27" fill="none" xmlns="http://www.w3.org/2000/svg">
<mask id="mask0_16238_228532" style="mask-type:alpha" maskUnits="userSpaceOnUse" x="0" y="0" width="27" height="27">
<circle cx="13.5" cy="13.5" r="13.5" fill="#1A475F"/>
</mask>
<g mask="url(#mask0_16238_228532)">
<rect width="27" height="27" fill="#1A475F"/>
<path d="M7.22808 20.0825C7.6962 19.9548 8.26069 19.7743 8.87706 19.5744C8.97299 19.5433 9.07038 19.5117 9.16911 19.4796C9.85441 19.2569 10.6046 19.0131 11.3857 18.7807C13.1832 18.2458 15.0872 17.7891 16.6486 17.7891C19.1019 17.7891 21.0949 18.2889 22.8334 18.8339C22.3723 18.7749 21.9336 18.7123 21.5156 18.6495C21.1605 18.5962 20.8172 18.5422 20.4855 18.4901C19.2025 18.2883 18.0943 18.114 17.1532 18.114C14.6811 18.114 12.3322 18.7291 10.1518 19.3241C10.0569 19.3501 9.96231 19.3759 9.86812 19.4017C8.95647 19.6509 8.07863 19.8909 7.22808 20.0825Z" fill="white" stroke="white"/>
<path d="M16.6992 12.4126C18.0961 13.3681 19.3731 15.0891 19.6254 16.6792L18.1119 16.4937C17.683 15.3012 16.9515 14.4531 15.9677 13.7111C14.9092 12.9871 13.7049 12.7629 12.4614 12.9956C11.2179 13.2283 10.1646 13.8667 9.40916 14.9301C8.6537 15.9936 8.40015 17.1297 8.42537 18.5342L7.79475 18.7189L6.93708 18.9317C6.7503 17.1916 7.09114 15.4714 8.08807 14.068C9.085 12.6646 10.5429 11.7657 12.1839 11.4586C13.825 11.1515 15.3024 11.4572 16.6992 12.4126Z" fill="white"/>
<path d="M4.58578 16.7792C5.34438 17.1282 5.39126 17.2682 5.36173 17.4195C5.3322 17.5709 5.09997 17.5163 5.09997 17.5163L3.18182 17.2981C2.86705 17.2365 2.06258 17.1499 1.88632 17.1027C1.71006 17.0554 1.6682 16.9304 1.61092 16.8392C1.55364 16.748 1.44482 16.4231 1.4911 16.3217C1.53737 16.2203 1.5907 16.0601 1.87625 15.9546C2.1618 15.8491 2.60376 16.0509 3.32554 16.2898C4.04731 16.5288 3.63752 16.3431 4.58578 16.7792Z" fill="white"/>
<path d="M7.01268 11.6991C7.61808 12.2927 7.61808 12.4411 7.54241 12.5736C7.46673 12.7061 7.26493 12.5736 7.26493 12.5736L5.52439 11.6991C5.24691 11.5312 4.51538 11.1691 4.36403 11.0631C4.21268 10.9571 4.21268 10.8246 4.18745 10.7186C4.16222 10.6126 4.16222 10.2681 4.2379 10.1886C4.31358 10.1091 4.41448 9.97656 4.71718 9.97656C5.01988 9.97656 5.37304 10.3211 5.97844 10.7981C6.58385 11.2751 6.25592 10.9571 7.01268 11.6991Z" fill="white"/>
<path d="M11.0234 6.00088C10.6601 6.02208 10.5189 6.45139 10.4937 6.66339L10.9225 8.30642C11.0486 8.68626 11.3261 9.50954 11.427 9.76394C11.5279 10.0183 11.6372 10.0996 11.6792 10.1084C11.7129 10.1438 11.8003 10.1243 11.881 9.76394C11.9618 9.40354 11.9147 8.71276 11.881 8.41242L11.6792 6.53089C11.612 6.34539 11.3866 5.97968 11.0234 6.00088Z" fill="white"/>
<path d="M17.3178 10.2521C16.7708 10.9053 16.6296 10.9096 16.5013 10.8341C16.373 10.7585 16.4931 10.5427 16.4931 10.5427L17.2739 8.68922C17.4254 8.3929 17.7485 7.61406 17.8449 7.45201C17.9413 7.28996 18.0674 7.28605 18.1675 7.25644C18.2676 7.22683 18.5954 7.21669 18.6733 7.29381C18.7511 7.37094 18.8802 7.47299 18.8891 7.79086C18.898 8.10873 18.5806 8.48971 18.1446 9.13949C17.7086 9.78927 18.0015 9.43555 17.3178 10.2521Z" fill="white"/>
<path d="M21.1594 13.8941C20.418 14.2818 20.2857 14.2298 20.1941 14.1089C20.1025 13.988 20.2913 13.8358 20.2913 13.8358L21.681 12.4298C21.9278 12.2156 22.5071 11.6227 22.6546 11.5109C22.8022 11.3992 22.9203 11.4456 23.0236 11.4579C23.127 11.4703 23.4341 11.591 23.4785 11.6933C23.5228 11.7956 23.6056 11.9413 23.4995 12.2392C23.3934 12.537 22.9625 12.7638 22.3251 13.1923C21.6877 13.6208 22.0861 13.4096 21.1594 13.8941Z" fill="white"/>
</g>
</svg>
